<svg width="27" height="29" viewBox="0 0 27 29" fill="none" xmlns="http://www.w3.org/2000/svg">
<g id="Layer 2">
<path id="Vector" d="M26.4095 24.8514C26.227 25.1263 25.9793 25.3517 25.6885 25.5075C25.3977 25.6634 25.0728 25.7449 24.7429 25.7448H24.5162L22.3295 25.4781L21.4895 27.4914C21.3443 27.83 21.1078 28.1216 20.8064 28.3335C20.505 28.5454 20.1506 28.6694 19.7829 28.6914H19.6095C19.2606 28.6897 18.9185 28.5949 18.6185 28.4168C18.3184 28.2386 18.0714 27.9836 17.9029 27.6781L15.5295 23.5581C15.9641 23.316 16.3634 23.0154 16.7162 22.6648L17.6095 21.7714H18.6095C19.7578 21.7733 20.8738 21.3911 21.7798 20.6856C22.6858 19.9801 23.3299 18.9918 23.6095 17.8781L26.4095 22.7714C26.6018 23.0843 26.7035 23.4443 26.7035 23.8114C26.7035 24.1786 26.6018 24.5386 26.4095 24.8514Z" fill="#DFB748"/>
<path id="Vector_2" d="M11.0494 23.7714L8.78276 27.6781C8.60976 27.9777 8.36101 28.2266 8.06146 28.3998C7.76191 28.573 7.4221 28.6644 7.07609 28.6648H6.95609C6.58832 28.6427 6.23395 28.5187 5.93256 28.3068C5.63117 28.0949 5.39465 27.8034 5.24942 27.4648L4.38276 25.4381L2.22276 25.7181C1.85713 25.7618 1.48654 25.7031 1.15235 25.5485C0.81816 25.3938 0.533526 25.1494 0.330225 24.8423C0.126923 24.5353 0.0129538 24.1778 0.00104027 23.8098C-0.0108733 23.4417 0.0797378 23.0776 0.262758 22.7581L2.74276 18.4781C3.11319 19.4509 3.77065 20.2882 4.62792 20.8788C5.4852 21.4693 6.50176 21.7853 7.54276 21.7848H8.54276L9.43609 22.6781C9.90077 23.1402 10.448 23.5111 11.0494 23.7714Z" fill="#DFB748"/>
<path id="Vector_3" d="M23.2361 8.86476L22.1294 7.77143C21.8992 7.52553 21.7706 7.20161 21.7694 6.86476V5.53143C21.7659 4.69443 21.4318 3.89271 20.84 3.30085C20.2481 2.70899 19.4464 2.37494 18.6094 2.37143H17.2761C16.9374 2.36666 16.6132 2.23318 16.3694 1.9981L15.2627 0.891429C14.6626 0.319219 13.8653 0 13.0361 0C12.2069 0 11.4095 0.319219 10.8094 0.891429L9.70274 1.9981C9.45891 2.23318 9.13475 2.36666 8.79608 2.37143H7.46274C6.63397 2.39585 5.848 2.74502 5.27432 3.34364C4.70064 3.94226 4.38522 4.74237 4.39608 5.57143V6.90476C4.39131 7.24343 4.25783 7.5676 4.02274 7.81143L2.91608 8.90476C2.61977 9.19635 2.38445 9.54397 2.22382 9.9274C2.06319 10.3108 1.98047 10.7224 1.98047 11.1381C1.98047 11.5538 2.06319 11.9654 2.22382 12.3488C2.38445 12.7322 2.61977 13.0798 2.91608 13.3714L4.02274 14.4781C4.25473 14.7186 4.38796 15.0374 4.39608 15.3714V16.7048C4.39608 17.5393 4.7276 18.3397 5.31771 18.9298C5.90783 19.5199 6.70819 19.8514 7.54274 19.8514H8.87608C9.21475 19.8562 9.53891 19.9897 9.78274 20.2248L10.8894 21.3314C11.4814 21.9193 12.2818 22.2492 13.1161 22.2492C13.9503 22.2492 14.7508 21.9193 15.3427 21.3314L16.4494 20.2248C16.6932 19.9897 17.0174 19.8562 17.3561 19.8514H18.6894C19.5252 19.8514 20.3269 19.5203 20.9192 18.9306C21.5114 18.3409 21.8459 17.5405 21.8494 16.7048V15.3714C21.8539 15.0392 21.9823 14.7206 22.2094 14.4781L23.3161 13.3714C23.6117 13.073 23.8446 12.7183 24.0009 12.3284C24.1573 11.9385 24.2341 11.5212 24.2266 11.1012C24.2191 10.6812 24.1277 10.2669 23.9575 9.88281C23.7874 9.4987 23.5421 9.15255 23.2361 8.86476ZM17.6227 10.1981L13.1694 14.6114C12.9819 14.7987 12.7277 14.9039 12.4627 14.9039C12.1977 14.9039 11.9436 14.7987 11.7561 14.6114L9.52941 12.3848C9.34214 12.1973 9.23696 11.9431 9.23696 11.6781C9.23696 11.4131 9.34214 11.1589 9.52941 10.9714C9.72083 10.7865 9.97659 10.6831 10.2427 10.6831C10.5089 10.6831 10.7647 10.7865 10.9561 10.9714L12.4627 12.4914L16.1961 8.74476C16.3875 8.55984 16.6433 8.45647 16.9094 8.45647C17.1756 8.45647 17.4313 8.55984 17.6227 8.74476C17.81 8.93226 17.9152 9.18643 17.9152 9.45143C17.9152 9.71643 17.81 9.9706 17.6227 10.1581V10.1981Z" fill="#DFB748"/>
</g>
</svg>
