<svg width="32" height="32" viewBox="0 0 32 32" fill="none" xmlns="http://www.w3.org/2000/svg">
<g id="Group">
<path id="Vector" d="M29.9918 0.9375C29.9918 0.41975 29.572 0 29.0543 0H23.0293C22.5115 0 22.0918 0.41975 22.0918 0.9375V5.15419H29.9918V0.9375Z" fill="#DFB748"/>
<path id="Vector_2" d="M19.95 0.9375C19.95 0.41975 19.5303 0 19.0125 0H12.9875C12.4698 0 12.05 0.41975 12.05 0.9375V5.15419H19.95V0.9375Z" fill="#DFB748"/>
<path id="Vector_3" d="M9.9083 0.9375C9.9083 0.41975 9.48855 0 8.9708 0H2.9458C2.42805 0 2.0083 0.41975 2.0083 0.9375V5.15419H9.9083V0.9375Z" fill="#DFB748"/>
<path id="Vector_4" d="M0.937381 8.90417H31.0624C31.5801 8.90417 31.9999 8.48442 31.9999 7.96667C31.9999 7.44892 31.5801 7.02917 31.0624 7.02917H0.937381C-0.295369 7.07067 -0.313244 8.85524 0.937381 8.90417Z" fill="#DFB748"/>
<path id="Vector_5" d="M23.0293 11.0458C22.5115 11.0458 22.0918 11.4656 22.0918 11.9833V16.2H29.9918V11.9833C29.9918 11.4656 29.572 11.0458 29.0543 11.0458H23.0293Z" fill="#DFB748"/>
<path id="Vector_6" d="M12.9875 11.0458C12.4698 11.0458 12.05 11.4656 12.05 11.9833V16.2H19.95V11.9833C19.95 11.4656 19.5303 11.0458 19.0125 11.0458H12.9875Z" fill="#DFB748"/>
<path id="Vector_7" d="M2.9458 11.0458C2.42805 11.0458 2.0083 11.4656 2.0083 11.9833V16.2H9.9083V11.9833C9.9083 11.4656 9.48855 11.0458 8.9708 11.0458H2.9458Z" fill="#DFB748"/>
<path id="Vector_8" d="M31.0626 18.075H29.3357C30.1844 18.5132 30.9487 19.0925 31.5978 19.7816C32.3418 19.2659 31.9808 18.0774 31.0626 18.075Z" fill="#DFB748"/>
<path id="Vector_9" d="M21.6875 18.075H0.9375C0.41975 18.075 0 18.4948 0 19.0125C0 19.5303 0.41975 19.95 0.9375 19.95H19.2712C19.9522 19.1866 20.7706 18.5484 21.6875 18.075Z" fill="#DFB748"/>
<path id="Vector_10" d="M25.5116 19.0231C21.9339 19.0231 19.0232 21.9338 19.0232 25.5115C19.3494 34.1076 31.6752 34.1052 32.0001 25.5115C32.0001 21.9338 29.0894 19.0231 25.5116 19.0231ZM28.1211 24.8766L25.5259 27.4718C25.1598 27.8379 24.5663 27.8379 24.2002 27.4719L22.9023 26.1746C22.0565 25.2645 23.3166 24.0026 24.2279 24.8485L24.8629 25.4832L26.7954 23.5508C27.706 22.7048 28.967 23.9661 28.1211 24.8766Z" fill="#DFB748"/>
</g>
</svg>
