<svg width="26" height="31" viewBox="0 0 26 31" fill="none" xmlns="http://www.w3.org/2000/svg">
<g id="FIle Protection">
<g id="Group">
<path id="Path" d="M19.3331 5.33626H22C22.2669 5.33626 22.5331 5.20314 22.6003 4.93626C22.7334 4.66938 22.6643 4.40314 22.4672 4.20282L18.4672 0.202816C18.2675 0.00249625 18.0006 -0.0640637 17.7337 0.0696963C17.4669 0.203456 17.3337 0.403136 17.3337 0.669376V3.33626C17.3331 4.4697 18.1971 5.33626 19.3331 5.33626Z" fill="#DFB748"/>
<path id="Shape" d="M14 19.2697C14.0013 18.9958 14.0849 18.7286 14.2398 18.5028C14.3948 18.277 14.614 18.1029 14.8691 18.0031L20.2022 16.0697C20.3354 16.0057 20.5357 16.0057 20.6688 16.0057C20.8019 16.0057 21.0022 16.0057 21.1354 16.0697L22.6714 16.6028V6.53626C22.4566 6.61249 22.232 6.65733 22.0045 6.66938H19.3331C18.8942 6.67366 18.4589 6.59036 18.0526 6.42437C17.6462 6.25838 17.2771 6.01303 16.9667 5.70266C16.6564 5.3923 16.411 5.02316 16.245 4.61683C16.079 4.21051 15.9957 3.77516 16 3.33626V0.669382C16.0121 0.441842 16.0569 0.217233 16.1331 0.00250244H2C0.86656 0.00314244 0 0.872262 0 2.00314V27.3363C0 28.4697 0.86656 29.3363 2 29.3363H16C14.8691 28.2003 14 26.6694 14 24.7366V19.2697ZM5.33312 7.33626H11.3331C11.7331 7.33626 12 7.60314 12 8.00314C12 8.40314 11.7331 8.67002 11.3331 8.67002H5.33312C4.93312 8.67002 4.66624 8.40314 4.66624 8.00314C4.66624 7.60314 4.93312 7.33626 5.33312 7.33626ZM5.33312 10.6694H17.3331C17.7331 10.6694 18 10.9363 18 11.3363C18 11.7363 17.7331 12.0031 17.3331 12.0031H5.33312C4.93312 12.0031 4.66624 11.7363 4.66624 11.3363C4.66624 10.9363 4.93312 10.6694 5.33312 10.6694ZM4.66624 14.6694C4.66624 14.2694 4.93312 14.0025 5.33312 14.0025H14.6662C15.0662 14.0025 15.3331 14.2694 15.3331 14.6694C15.3331 15.0694 15.0662 15.3363 14.6662 15.3363H5.33312C4.93312 15.3363 4.66624 15.0694 4.66624 14.6694Z" fill="#DFB748"/>
<path id="Shape_2" d="M20.6661 17.3362L15.333 19.2697V24.67C15.333 28.4031 19.4661 30.2034 20.6661 30.6034C21.8661 30.2034 25.9992 28.4038 25.9992 24.67V19.2697L20.6661 17.3362ZM23.1992 22.4031L21.1992 25.07C21.0661 25.2031 20.9324 25.3369 20.7327 25.3369H20.6687C20.5811 25.3393 20.494 25.3228 20.4135 25.2883C20.3329 25.2538 20.2608 25.2023 20.2021 25.1372L18.869 23.8041C18.758 23.6785 18.6988 23.5154 18.7037 23.3479C18.7085 23.1803 18.777 23.0209 18.8951 22.9019C19.0132 22.783 19.1721 22.7135 19.3397 22.7075C19.5072 22.7015 19.6707 22.7595 19.797 22.8697L20.597 23.6697L22.133 21.6031C22.3333 21.3362 22.7999 21.2697 23.0661 21.47C23.3324 21.6703 23.3996 22.1362 23.1999 22.4031H23.1992Z" fill="#DFB748"/>
</g>
</g>
</svg>
