<svg width="1920" height="627" viewBox="0 0 1920 627" fill="none" xmlns="http://www.w3.org/2000/svg">
<g opacity="0.2">
<g clip-path="url(#clip0_1019_3046)">
<path opacity="0.5" d="M4 3.5H3V403.5H4V3.5Z" fill="white" fill-opacity="0.4"/>
<path opacity="0.2" d="M23.55 3H22.55V404H23.55V3Z" fill="white" fill-opacity="0.4"/>
<path opacity="0.2" d="M43.6001 3H42.6001V404H43.6001V3Z" fill="white" fill-opacity="0.4"/>
<path opacity="0.2" d="M63.6499 3H62.6499V404H63.6499V3Z" fill="white" fill-opacity="0.4"/>
<path opacity="0.2" d="M83.7 3H82.7V404H83.7V3Z" fill="white" fill-opacity="0.4"/>
<path opacity="0.5" d="M103.75 3H102.75V404H103.75V3Z" fill="white" fill-opacity="0.4"/>
<path opacity="0.2" d="M123.8 3H122.8V404H123.8V3Z" fill="white" fill-opacity="0.4"/>
<path opacity="0.2" d="M143.85 3H142.85V404H143.85V3Z" fill="white" fill-opacity="0.4"/>
<path opacity="0.2" d="M163.9 3H162.9V404H163.9V3Z" fill="white" fill-opacity="0.4"/>
<path opacity="0.2" d="M183.95 3H182.95V404H183.95V3Z" fill="white" fill-opacity="0.4"/>
<path opacity="0.5" d="M204 3H203V404H204V3Z" fill="white" fill-opacity="0.4"/>
<path opacity="0.2" d="M224.05 3H223.05V404H224.05V3Z" fill="white" fill-opacity="0.4"/>
<path opacity="0.2" d="M244.1 3H243.1V404H244.1V3Z" fill="white" fill-opacity="0.4"/>
<path opacity="0.2" d="M264.15 3H263.15V404H264.15V3Z" fill="white" fill-opacity="0.4"/>
<path opacity="0.2" d="M284.2 3H283.2V404H284.2V3Z" fill="white" fill-opacity="0.4"/>
<path opacity="0.5" d="M304.25 3H303.25V404H304.25V3Z" fill="white" fill-opacity="0.4"/>
<path opacity="0.2" d="M324.3 3H323.3V404H324.3V3Z" fill="white" fill-opacity="0.4"/>
<path opacity="0.2" d="M344.35 3H343.35V404H344.35V3Z" fill="white" fill-opacity="0.4"/>
<path opacity="0.2" d="M364.4 3H363.4V404H364.4V3Z" fill="white" fill-opacity="0.4"/>
<path opacity="0.2" d="M384.45 3H383.45V404H384.45V3Z" fill="white" fill-opacity="0.4"/>
<path opacity="0.5" d="M404 3.5H403V403.5H404V3.5Z" fill="white" fill-opacity="0.4"/>
<path opacity="0.5" d="M403.5 3H3.5V4H403.5V3Z" fill="white" fill-opacity="0.4"/>
<path opacity="0.2" d="M404 22.55H3V23.55H404V22.55Z" fill="white" fill-opacity="0.4"/>
<path opacity="0.2" d="M404 42.6H3V43.6H404V42.6Z" fill="white" fill-opacity="0.4"/>
<path opacity="0.2" d="M404 62.65H3V63.65H404V62.65Z" fill="white" fill-opacity="0.4"/>
<path opacity="0.2" d="M404 82.7H3V83.7H404V82.7Z" fill="white" fill-opacity="0.4"/>
<path opacity="0.5" d="M404 102.75H3V103.75H404V102.75Z" fill="white" fill-opacity="0.4"/>
<path opacity="0.2" d="M404 122.8H3V123.8H404V122.8Z" fill="white" fill-opacity="0.4"/>
<path opacity="0.2" d="M404 142.85H3V143.85H404V142.85Z" fill="white" fill-opacity="0.4"/>
<path opacity="0.2" d="M404 162.9H3V163.9H404V162.9Z" fill="white" fill-opacity="0.4"/>
<path opacity="0.2" d="M404 182.95H3V183.95H404V182.95Z" fill="white" fill-opacity="0.4"/>
<path opacity="0.5" d="M404 203H3V204H404V203Z" fill="white" fill-opacity="0.4"/>
<path opacity="0.2" d="M404 223.05H3V224.05H404V223.05Z" fill="white" fill-opacity="0.4"/>
<path opacity="0.2" d="M404 243.1H3V244.1H404V243.1Z" fill="white" fill-opacity="0.4"/>
<path opacity="0.2" d="M404 263.15H3V264.15H404V263.15Z" fill="white" fill-opacity="0.4"/>
<path opacity="0.2" d="M404 283.2H3V284.2H404V283.2Z" fill="white" fill-opacity="0.4"/>
<path opacity="0.5" d="M404 303.25H3V304.25H404V303.25Z" fill="white" fill-opacity="0.4"/>
<path opacity="0.2" d="M404 323.3H3V324.3H404V323.3Z" fill="white" fill-opacity="0.4"/>
<path opacity="0.2" d="M404 343.35H3V344.35H404V343.35Z" fill="white" fill-opacity="0.4"/>
<path opacity="0.2" d="M404 363.4H3V364.4H404V363.4Z" fill="white" fill-opacity="0.4"/>
<path opacity="0.2" d="M404 383.45H3V384.45H404V383.45Z" fill="white" fill-opacity="0.4"/>
<path opacity="0.5" d="M403.5 403H3.5V404H403.5V403Z" fill="white" fill-opacity="0.4"/>
<path d="M4 0H3V7H4V0Z" fill="white" fill-opacity="0.4"/>
<path d="M7 3H0V4H7V3Z" fill="white" fill-opacity="0.4"/>
<path d="M404 0H403V7H404V0Z" fill="white" fill-opacity="0.4"/>
<path d="M407 3H400V4H407V3Z" fill="white" fill-opacity="0.4"/>
<path d="M4 100H3V107H4V100Z" fill="white" fill-opacity="0.4"/>
<path d="M7 103H0V104H7V103Z" fill="white" fill-opacity="0.4"/>
<path d="M404 100H403V107H404V100Z" fill="white" fill-opacity="0.4"/>
<path d="M407 103H400V104H407V103Z" fill="white" fill-opacity="0.4"/>
<path d="M4 200H3V207H4V200Z" fill="white" fill-opacity="0.4"/>
<path d="M7 203H0V204H7V203Z" fill="white" fill-opacity="0.4"/>
<path d="M404 200H403V207H404V200Z" fill="white" fill-opacity="0.4"/>
<path d="M407 203H400V204H407V203Z" fill="white" fill-opacity="0.4"/>
<path d="M4 300H3V307H4V300Z" fill="white" fill-opacity="0.4"/>
<path d="M7 303H0V304H7V303Z" fill="white" fill-opacity="0.4"/>
<path d="M404 300H403V307H404V300Z" fill="white" fill-opacity="0.4"/>
<path d="M407 303H400V304H407V303Z" fill="white" fill-opacity="0.4"/>
<path d="M4 400H3V407H4V400Z" fill="white" fill-opacity="0.4"/>
<path d="M7 403H0V404H7V403Z" fill="white" fill-opacity="0.4"/>
<path d="M104 0H103V7H104V0Z" fill="white" fill-opacity="0.4"/>
<path d="M107 3H100V4H107V3Z" fill="white" fill-opacity="0.4"/>
<path d="M104 100H103V107H104V100Z" fill="white" fill-opacity="0.4"/>
<path d="M107 103H100V104H107V103Z" fill="white" fill-opacity="0.4"/>
<path d="M104 200H103V207H104V200Z" fill="white" fill-opacity="0.4"/>
<path d="M107 203H100V204H107V203Z" fill="white" fill-opacity="0.4"/>
<path d="M104 300H103V307H104V300Z" fill="white" fill-opacity="0.4"/>
<path d="M107 303H100V304H107V303Z" fill="white" fill-opacity="0.4"/>
<path d="M104 400H103V407H104V400Z" fill="white" fill-opacity="0.4"/>
<path d="M107 403H100V404H107V403Z" fill="white" fill-opacity="0.4"/>
<path d="M204 0H203V7H204V0Z" fill="white" fill-opacity="0.4"/>
<path d="M207 3H200V4H207V3Z" fill="white" fill-opacity="0.4"/>
<path d="M204 100H203V107H204V100Z" fill="white" fill-opacity="0.4"/>
<path d="M207 103H200V104H207V103Z" fill="white" fill-opacity="0.4"/>
<path d="M204 200H203V207H204V200Z" fill="white" fill-opacity="0.4"/>
<path d="M207 203H200V204H207V203Z" fill="white" fill-opacity="0.4"/>
<path d="M204 300H203V307H204V300Z" fill="white" fill-opacity="0.4"/>
<path d="M207 303H200V304H207V303Z" fill="white" fill-opacity="0.4"/>
<path d="M204 400H203V407H204V400Z" fill="white" fill-opacity="0.4"/>
<path d="M207 403H200V404H207V403Z" fill="white" fill-opacity="0.4"/>
<path d="M304 0H303V7H304V0Z" fill="white" fill-opacity="0.4"/>
<path d="M307 3H300V4H307V3Z" fill="white" fill-opacity="0.4"/>
<path d="M304 100H303V107H304V100Z" fill="white" fill-opacity="0.4"/>
<path d="M307 103H300V104H307V103Z" fill="white" fill-opacity="0.4"/>
<path d="M304 200H303V207H304V200Z" fill="white" fill-opacity="0.4"/>
<path d="M307 203H300V204H307V203Z" fill="white" fill-opacity="0.4"/>
<path d="M304 300H303V307H304V300Z" fill="white" fill-opacity="0.4"/>
<path d="M307 303H300V304H307V303Z" fill="white" fill-opacity="0.4"/>
<path d="M304 400H303V407H304V400Z" fill="white" fill-opacity="0.4"/>
<path d="M307 403H300V404H307V403Z" fill="white" fill-opacity="0.4"/>
<path d="M404 400H403V407H404V400Z" fill="white" fill-opacity="0.4"/>
<path d="M407 403H400V404H407V403Z" fill="white" fill-opacity="0.4"/>
<path d="M54 53H53V54H54V53Z" fill="white" fill-opacity="0.4"/>
<path d="M154 53H153V54H154V53Z" fill="white" fill-opacity="0.4"/>
<path d="M254 53H253V54H254V53Z" fill="white" fill-opacity="0.4"/>
<path d="M354 53H353V54H354V53Z" fill="white" fill-opacity="0.4"/>
<path d="M54 153H53V154H54V153Z" fill="white" fill-opacity="0.4"/>
<path d="M154 153H153V154H154V153Z" fill="white" fill-opacity="0.4"/>
<path d="M254 153H253V154H254V153Z" fill="white" fill-opacity="0.4"/>
<path d="M354 153H353V154H354V153Z" fill="white" fill-opacity="0.4"/>
<path d="M54 253H53V254H54V253Z" fill="white" fill-opacity="0.4"/>
<path d="M154 253H153V254H154V253Z" fill="white" fill-opacity="0.4"/>
<path d="M254 253H253V254H254V253Z" fill="white" fill-opacity="0.4"/>
<path d="M354 253H353V254H354V253Z" fill="white" fill-opacity="0.4"/>
<path d="M54 353H53V354H54V353Z" fill="white" fill-opacity="0.4"/>
<path d="M154 353H153V354H154V353Z" fill="white" fill-opacity="0.4"/>
<path d="M254 353H253V354H254V353Z" fill="white" fill-opacity="0.4"/>
<path d="M354 353H353V354H354V353Z" fill="white" fill-opacity="0.4"/>
</g>
<g clip-path="url(#clip1_1019_3046)">
<path opacity="0.5" d="M4 203.5H3V603.5H4V203.5Z" fill="white" fill-opacity="0.4"/>
<path opacity="0.2" d="M23.55 203H22.55V604H23.55V203Z" fill="white" fill-opacity="0.4"/>
<path opacity="0.2" d="M43.6001 203H42.6001V604H43.6001V203Z" fill="white" fill-opacity="0.4"/>
<path opacity="0.2" d="M63.6499 203H62.6499V604H63.6499V203Z" fill="white" fill-opacity="0.4"/>
<path opacity="0.2" d="M83.7 203H82.7V604H83.7V203Z" fill="white" fill-opacity="0.4"/>
<path opacity="0.5" d="M103.75 203H102.75V604H103.75V203Z" fill="white" fill-opacity="0.4"/>
<path opacity="0.2" d="M123.8 203H122.8V604H123.8V203Z" fill="white" fill-opacity="0.4"/>
<path opacity="0.2" d="M143.85 203H142.85V604H143.85V203Z" fill="white" fill-opacity="0.4"/>
<path opacity="0.2" d="M163.9 203H162.9V604H163.9V203Z" fill="white" fill-opacity="0.4"/>
<path opacity="0.2" d="M183.95 203H182.95V604H183.95V203Z" fill="white" fill-opacity="0.4"/>
<path opacity="0.5" d="M204 203H203V604H204V203Z" fill="white" fill-opacity="0.4"/>
<path opacity="0.2" d="M224.05 203H223.05V604H224.05V203Z" fill="white" fill-opacity="0.4"/>
<path opacity="0.2" d="M244.1 203H243.1V604H244.1V203Z" fill="white" fill-opacity="0.4"/>
<path opacity="0.2" d="M264.15 203H263.15V604H264.15V203Z" fill="white" fill-opacity="0.4"/>
<path opacity="0.2" d="M284.2 203H283.2V604H284.2V203Z" fill="white" fill-opacity="0.4"/>
<path opacity="0.5" d="M304.25 203H303.25V604H304.25V203Z" fill="white" fill-opacity="0.4"/>
<path opacity="0.2" d="M324.3 203H323.3V604H324.3V203Z" fill="white" fill-opacity="0.4"/>
<path opacity="0.2" d="M344.35 203H343.35V604H344.35V203Z" fill="white" fill-opacity="0.4"/>
<path opacity="0.2" d="M364.4 203H363.4V604H364.4V203Z" fill="white" fill-opacity="0.4"/>
<path opacity="0.2" d="M384.45 203H383.45V604H384.45V203Z" fill="white" fill-opacity="0.4"/>
<path opacity="0.5" d="M404 203.5H403V603.5H404V203.5Z" fill="white" fill-opacity="0.4"/>
<path opacity="0.5" d="M403.5 203H3.5V204H403.5V203Z" fill="white" fill-opacity="0.4"/>
<path opacity="0.2" d="M404 222.55H3V223.55H404V222.55Z" fill="white" fill-opacity="0.4"/>
<path opacity="0.2" d="M404 242.6H3V243.6H404V242.6Z" fill="white" fill-opacity="0.4"/>
<path opacity="0.2" d="M404 262.65H3V263.65H404V262.65Z" fill="white" fill-opacity="0.4"/>
<path opacity="0.2" d="M404 282.7H3V283.7H404V282.7Z" fill="white" fill-opacity="0.4"/>
<path opacity="0.5" d="M404 302.75H3V303.75H404V302.75Z" fill="white" fill-opacity="0.4"/>
<path opacity="0.2" d="M404 322.8H3V323.8H404V322.8Z" fill="white" fill-opacity="0.4"/>
<path opacity="0.2" d="M404 342.85H3V343.85H404V342.85Z" fill="white" fill-opacity="0.4"/>
<path opacity="0.2" d="M404 362.9H3V363.9H404V362.9Z" fill="white" fill-opacity="0.4"/>
<path opacity="0.2" d="M404 382.95H3V383.95H404V382.95Z" fill="white" fill-opacity="0.4"/>
<path opacity="0.5" d="M404 403H3V404H404V403Z" fill="white" fill-opacity="0.4"/>
<path opacity="0.2" d="M404 423.05H3V424.05H404V423.05Z" fill="white" fill-opacity="0.4"/>
<path opacity="0.2" d="M404 443.1H3V444.1H404V443.1Z" fill="white" fill-opacity="0.4"/>
<path opacity="0.2" d="M404 463.15H3V464.15H404V463.15Z" fill="white" fill-opacity="0.4"/>
<path opacity="0.2" d="M404 483.2H3V484.2H404V483.2Z" fill="white" fill-opacity="0.4"/>
<path opacity="0.5" d="M404 503.25H3V504.25H404V503.25Z" fill="white" fill-opacity="0.4"/>
<path opacity="0.2" d="M404 523.3H3V524.3H404V523.3Z" fill="white" fill-opacity="0.4"/>
<path opacity="0.2" d="M404 543.35H3V544.35H404V543.35Z" fill="white" fill-opacity="0.4"/>
<path opacity="0.2" d="M404 563.4H3V564.4H404V563.4Z" fill="white" fill-opacity="0.4"/>
<path opacity="0.2" d="M404 583.45H3V584.45H404V583.45Z" fill="white" fill-opacity="0.4"/>
<path opacity="0.5" d="M403.5 603H3.5V604H403.5V603Z" fill="white" fill-opacity="0.4"/>
<path d="M4 200H3V207H4V200Z" fill="white" fill-opacity="0.4"/>
<path d="M7 203H0V204H7V203Z" fill="white" fill-opacity="0.4"/>
<path d="M404 200H403V207H404V200Z" fill="white" fill-opacity="0.4"/>
<path d="M407 203H400V204H407V203Z" fill="white" fill-opacity="0.4"/>
<path d="M4 300H3V307H4V300Z" fill="white" fill-opacity="0.4"/>
<path d="M7 303H0V304H7V303Z" fill="white" fill-opacity="0.4"/>
<path d="M404 300H403V307H404V300Z" fill="white" fill-opacity="0.4"/>
<path d="M407 303H400V304H407V303Z" fill="white" fill-opacity="0.4"/>
<path d="M4 400H3V407H4V400Z" fill="white" fill-opacity="0.4"/>
<path d="M7 403H0V404H7V403Z" fill="white" fill-opacity="0.4"/>
<path d="M404 400H403V407H404V400Z" fill="white" fill-opacity="0.4"/>
<path d="M407 403H400V404H407V403Z" fill="white" fill-opacity="0.4"/>
<path d="M4 500H3V507H4V500Z" fill="white" fill-opacity="0.4"/>
<path d="M7 503H0V504H7V503Z" fill="white" fill-opacity="0.4"/>
<path d="M404 500H403V507H404V500Z" fill="white" fill-opacity="0.4"/>
<path d="M407 503H400V504H407V503Z" fill="white" fill-opacity="0.4"/>
<path d="M4 600H3V607H4V600Z" fill="white" fill-opacity="0.4"/>
<path d="M7 603H0V604H7V603Z" fill="white" fill-opacity="0.4"/>
<path d="M104 200H103V207H104V200Z" fill="white" fill-opacity="0.4"/>
<path d="M107 203H100V204H107V203Z" fill="white" fill-opacity="0.4"/>
<path d="M104 300H103V307H104V300Z" fill="white" fill-opacity="0.4"/>
<path d="M107 303H100V304H107V303Z" fill="white" fill-opacity="0.4"/>
<path d="M104 400H103V407H104V400Z" fill="white" fill-opacity="0.4"/>
<path d="M107 403H100V404H107V403Z" fill="white" fill-opacity="0.4"/>
<path d="M104 500H103V507H104V500Z" fill="white" fill-opacity="0.4"/>
<path d="M107 503H100V504H107V503Z" fill="white" fill-opacity="0.4"/>
<path d="M104 600H103V607H104V600Z" fill="white" fill-opacity="0.4"/>
<path d="M107 603H100V604H107V603Z" fill="white" fill-opacity="0.4"/>
<path d="M204 200H203V207H204V200Z" fill="white" fill-opacity="0.4"/>
<path d="M207 203H200V204H207V203Z" fill="white" fill-opacity="0.4"/>
<path d="M204 300H203V307H204V300Z" fill="white" fill-opacity="0.4"/>
<path d="M207 303H200V304H207V303Z" fill="white" fill-opacity="0.4"/>
<path d="M204 400H203V407H204V400Z" fill="white" fill-opacity="0.4"/>
<path d="M207 403H200V404H207V403Z" fill="white" fill-opacity="0.4"/>
<path d="M204 500H203V507H204V500Z" fill="white" fill-opacity="0.4"/>
<path d="M207 503H200V504H207V503Z" fill="white" fill-opacity="0.4"/>
<path d="M204 600H203V607H204V600Z" fill="white" fill-opacity="0.4"/>
<path d="M207 603H200V604H207V603Z" fill="white" fill-opacity="0.4"/>
<path d="M304 200H303V207H304V200Z" fill="white" fill-opacity="0.4"/>
<path d="M307 203H300V204H307V203Z" fill="white" fill-opacity="0.4"/>
<path d="M304 300H303V307H304V300Z" fill="white" fill-opacity="0.4"/>
<path d="M307 303H300V304H307V303Z" fill="white" fill-opacity="0.4"/>
<path d="M304 400H303V407H304V400Z" fill="white" fill-opacity="0.4"/>
<path d="M307 403H300V404H307V403Z" fill="white" fill-opacity="0.4"/>
<path d="M304 500H303V507H304V500Z" fill="white" fill-opacity="0.4"/>
<path d="M307 503H300V504H307V503Z" fill="white" fill-opacity="0.4"/>
<path d="M304 600H303V607H304V600Z" fill="white" fill-opacity="0.4"/>
<path d="M307 603H300V604H307V603Z" fill="white" fill-opacity="0.4"/>
<path d="M404 600H403V607H404V600Z" fill="white" fill-opacity="0.4"/>
<path d="M407 603H400V604H407V603Z" fill="white" fill-opacity="0.4"/>
<path d="M54 253H53V254H54V253Z" fill="white" fill-opacity="0.4"/>
<path d="M154 253H153V254H154V253Z" fill="white" fill-opacity="0.4"/>
<path d="M254 253H253V254H254V253Z" fill="white" fill-opacity="0.4"/>
<path d="M354 253H353V254H354V253Z" fill="white" fill-opacity="0.4"/>
<path d="M54 353H53V354H54V353Z" fill="white" fill-opacity="0.4"/>
<path d="M154 353H153V354H154V353Z" fill="white" fill-opacity="0.4"/>
<path d="M254 353H253V354H254V353Z" fill="white" fill-opacity="0.4"/>
<path d="M354 353H353V354H354V353Z" fill="white" fill-opacity="0.4"/>
<path d="M54 453H53V454H54V453Z" fill="white" fill-opacity="0.4"/>
<path d="M154 453H153V454H154V453Z" fill="white" fill-opacity="0.4"/>
<path d="M254 453H253V454H254V453Z" fill="white" fill-opacity="0.4"/>
<path d="M354 453H353V454H354V453Z" fill="white" fill-opacity="0.4"/>
<path d="M54 553H53V554H54V553Z" fill="white" fill-opacity="0.4"/>
<path d="M154 553H153V554H154V553Z" fill="white" fill-opacity="0.4"/>
<path d="M254 553H253V554H254V553Z" fill="white" fill-opacity="0.4"/>
<path d="M354 553H353V554H354V553Z" fill="white" fill-opacity="0.4"/>
</g>
<g clip-path="url(#clip2_1019_3046)">
<path opacity="0.5" d="M404 3.5H403V403.5H404V3.5Z" fill="white" fill-opacity="0.4"/>
<path opacity="0.2" d="M423.55 3H422.55V404H423.55V3Z" fill="white" fill-opacity="0.4"/>
<path opacity="0.2" d="M443.6 3H442.6V404H443.6V3Z" fill="white" fill-opacity="0.4"/>
<path opacity="0.2" d="M463.65 3H462.65V404H463.65V3Z" fill="white" fill-opacity="0.4"/>
<path opacity="0.2" d="M483.7 3H482.7V404H483.7V3Z" fill="white" fill-opacity="0.4"/>
<path opacity="0.5" d="M503.75 3H502.75V404H503.75V3Z" fill="white" fill-opacity="0.4"/>
<path opacity="0.2" d="M523.8 3H522.8V404H523.8V3Z" fill="white" fill-opacity="0.4"/>
<path opacity="0.2" d="M543.85 3H542.85V404H543.85V3Z" fill="white" fill-opacity="0.4"/>
<path opacity="0.2" d="M563.9 3H562.9V404H563.9V3Z" fill="white" fill-opacity="0.4"/>
<path opacity="0.2" d="M583.95 3H582.95V404H583.95V3Z" fill="white" fill-opacity="0.4"/>
<path opacity="0.5" d="M604 3H603V404H604V3Z" fill="white" fill-opacity="0.4"/>
<path opacity="0.2" d="M624.05 3H623.05V404H624.05V3Z" fill="white" fill-opacity="0.4"/>
<path opacity="0.2" d="M644.1 3H643.1V404H644.1V3Z" fill="white" fill-opacity="0.4"/>
<path opacity="0.2" d="M664.15 3H663.15V404H664.15V3Z" fill="white" fill-opacity="0.4"/>
<path opacity="0.2" d="M684.2 3H683.2V404H684.2V3Z" fill="white" fill-opacity="0.4"/>
<path opacity="0.5" d="M704.25 3H703.25V404H704.25V3Z" fill="white" fill-opacity="0.4"/>
<path opacity="0.2" d="M724.3 3H723.3V404H724.3V3Z" fill="white" fill-opacity="0.4"/>
<path opacity="0.2" d="M744.35 3H743.35V404H744.35V3Z" fill="white" fill-opacity="0.4"/>
<path opacity="0.2" d="M764.4 3H763.4V404H764.4V3Z" fill="white" fill-opacity="0.4"/>
<path opacity="0.2" d="M784.45 3H783.45V404H784.45V3Z" fill="white" fill-opacity="0.4"/>
<path opacity="0.5" d="M804 3.5H803V403.5H804V3.5Z" fill="white" fill-opacity="0.4"/>
<path opacity="0.5" d="M803.5 3H403.5V4H803.5V3Z" fill="white" fill-opacity="0.4"/>
<path opacity="0.2" d="M804 22.55H403V23.55H804V22.55Z" fill="white" fill-opacity="0.4"/>
<path opacity="0.2" d="M804 42.6H403V43.6H804V42.6Z" fill="white" fill-opacity="0.4"/>
<path opacity="0.2" d="M804 62.65H403V63.65H804V62.65Z" fill="white" fill-opacity="0.4"/>
<path opacity="0.2" d="M804 82.7H403V83.7H804V82.7Z" fill="white" fill-opacity="0.4"/>
<path opacity="0.5" d="M804 102.75H403V103.75H804V102.75Z" fill="white" fill-opacity="0.4"/>
<path opacity="0.2" d="M804 122.8H403V123.8H804V122.8Z" fill="white" fill-opacity="0.4"/>
<path opacity="0.2" d="M804 142.85H403V143.85H804V142.85Z" fill="white" fill-opacity="0.4"/>
<path opacity="0.2" d="M804 162.9H403V163.9H804V162.9Z" fill="white" fill-opacity="0.4"/>
<path opacity="0.2" d="M804 182.95H403V183.95H804V182.95Z" fill="white" fill-opacity="0.4"/>
<path opacity="0.5" d="M804 203H403V204H804V203Z" fill="white" fill-opacity="0.4"/>
<path opacity="0.2" d="M804 223.05H403V224.05H804V223.05Z" fill="white" fill-opacity="0.4"/>
<path opacity="0.2" d="M804 243.1H403V244.1H804V243.1Z" fill="white" fill-opacity="0.4"/>
<path opacity="0.2" d="M804 263.15H403V264.15H804V263.15Z" fill="white" fill-opacity="0.4"/>
<path opacity="0.2" d="M804 283.2H403V284.2H804V283.2Z" fill="white" fill-opacity="0.4"/>
<path opacity="0.5" d="M804 303.25H403V304.25H804V303.25Z" fill="white" fill-opacity="0.4"/>
<path opacity="0.2" d="M804 323.3H403V324.3H804V323.3Z" fill="white" fill-opacity="0.4"/>
<path opacity="0.2" d="M804 343.35H403V344.35H804V343.35Z" fill="white" fill-opacity="0.4"/>
<path opacity="0.2" d="M804 363.4H403V364.4H804V363.4Z" fill="white" fill-opacity="0.4"/>
<path opacity="0.2" d="M804 383.45H403V384.45H804V383.45Z" fill="white" fill-opacity="0.4"/>
<path opacity="0.5" d="M803.5 403H403.5V404H803.5V403Z" fill="white" fill-opacity="0.4"/>
<path d="M404 0H403V7H404V0Z" fill="white" fill-opacity="0.4"/>
<path d="M407 3H400V4H407V3Z" fill="white" fill-opacity="0.4"/>
<path d="M804 0H803V7H804V0Z" fill="white" fill-opacity="0.4"/>
<path d="M807 3H800V4H807V3Z" fill="white" fill-opacity="0.4"/>
<path d="M404 100H403V107H404V100Z" fill="white" fill-opacity="0.4"/>
<path d="M407 103H400V104H407V103Z" fill="white" fill-opacity="0.4"/>
<path d="M804 100H803V107H804V100Z" fill="white" fill-opacity="0.4"/>
<path d="M807 103H800V104H807V103Z" fill="white" fill-opacity="0.4"/>
<path d="M404 200H403V207H404V200Z" fill="white" fill-opacity="0.4"/>
<path d="M407 203H400V204H407V203Z" fill="white" fill-opacity="0.4"/>
<path d="M804 200H803V207H804V200Z" fill="white" fill-opacity="0.4"/>
<path d="M807 203H800V204H807V203Z" fill="white" fill-opacity="0.4"/>
<path d="M404 300H403V307H404V300Z" fill="white" fill-opacity="0.4"/>
<path d="M407 303H400V304H407V303Z" fill="white" fill-opacity="0.4"/>
<path d="M804 300H803V307H804V300Z" fill="white" fill-opacity="0.4"/>
<path d="M807 303H800V304H807V303Z" fill="white" fill-opacity="0.4"/>
<path d="M404 400H403V407H404V400Z" fill="white" fill-opacity="0.4"/>
<path d="M407 403H400V404H407V403Z" fill="white" fill-opacity="0.4"/>
<path d="M504 0H503V7H504V0Z" fill="white" fill-opacity="0.4"/>
<path d="M507 3H500V4H507V3Z" fill="white" fill-opacity="0.4"/>
<path d="M504 100H503V107H504V100Z" fill="white" fill-opacity="0.4"/>
<path d="M507 103H500V104H507V103Z" fill="white" fill-opacity="0.4"/>
<path d="M504 200H503V207H504V200Z" fill="white" fill-opacity="0.4"/>
<path d="M507 203H500V204H507V203Z" fill="white" fill-opacity="0.4"/>
<path d="M504 300H503V307H504V300Z" fill="white" fill-opacity="0.4"/>
<path d="M507 303H500V304H507V303Z" fill="white" fill-opacity="0.4"/>
<path d="M504 400H503V407H504V400Z" fill="white" fill-opacity="0.4"/>
<path d="M507 403H500V404H507V403Z" fill="white" fill-opacity="0.4"/>
<path d="M604 0H603V7H604V0Z" fill="white" fill-opacity="0.4"/>
<path d="M607 3H600V4H607V3Z" fill="white" fill-opacity="0.4"/>
<path d="M604 100H603V107H604V100Z" fill="white" fill-opacity="0.4"/>
<path d="M607 103H600V104H607V103Z" fill="white" fill-opacity="0.4"/>
<path d="M604 200H603V207H604V200Z" fill="white" fill-opacity="0.4"/>
<path d="M607 203H600V204H607V203Z" fill="white" fill-opacity="0.4"/>
<path d="M604 300H603V307H604V300Z" fill="white" fill-opacity="0.4"/>
<path d="M607 303H600V304H607V303Z" fill="white" fill-opacity="0.4"/>
<path d="M604 400H603V407H604V400Z" fill="white" fill-opacity="0.4"/>
<path d="M607 403H600V404H607V403Z" fill="white" fill-opacity="0.4"/>
<path d="M704 0H703V7H704V0Z" fill="white" fill-opacity="0.4"/>
<path d="M707 3H700V4H707V3Z" fill="white" fill-opacity="0.4"/>
<path d="M704 100H703V107H704V100Z" fill="white" fill-opacity="0.4"/>
<path d="M707 103H700V104H707V103Z" fill="white" fill-opacity="0.4"/>
<path d="M704 200H703V207H704V200Z" fill="white" fill-opacity="0.4"/>
<path d="M707 203H700V204H707V203Z" fill="white" fill-opacity="0.4"/>
<path d="M704 300H703V307H704V300Z" fill="white" fill-opacity="0.4"/>
<path d="M707 303H700V304H707V303Z" fill="white" fill-opacity="0.4"/>
<path d="M704 400H703V407H704V400Z" fill="white" fill-opacity="0.4"/>
<path d="M707 403H700V404H707V403Z" fill="white" fill-opacity="0.4"/>
<path d="M804 400H803V407H804V400Z" fill="white" fill-opacity="0.4"/>
<path d="M807 403H800V404H807V403Z" fill="white" fill-opacity="0.4"/>
<path d="M454 53H453V54H454V53Z" fill="white" fill-opacity="0.4"/>
<path d="M554 53H553V54H554V53Z" fill="white" fill-opacity="0.4"/>
<path d="M654 53H653V54H654V53Z" fill="white" fill-opacity="0.4"/>
<path d="M754 53H753V54H754V53Z" fill="white" fill-opacity="0.4"/>
<path d="M454 153H453V154H454V153Z" fill="white" fill-opacity="0.4"/>
<path d="M554 153H553V154H554V153Z" fill="white" fill-opacity="0.4"/>
<path d="M654 153H653V154H654V153Z" fill="white" fill-opacity="0.4"/>
<path d="M754 153H753V154H754V153Z" fill="white" fill-opacity="0.4"/>
<path d="M454 253H453V254H454V253Z" fill="white" fill-opacity="0.4"/>
<path d="M554 253H553V254H554V253Z" fill="white" fill-opacity="0.4"/>
<path d="M654 253H653V254H654V253Z" fill="white" fill-opacity="0.4"/>
<path d="M754 253H753V254H754V253Z" fill="white" fill-opacity="0.4"/>
<path d="M454 353H453V354H454V353Z" fill="white" fill-opacity="0.4"/>
<path d="M554 353H553V354H554V353Z" fill="white" fill-opacity="0.4"/>
<path d="M654 353H653V354H654V353Z" fill="white" fill-opacity="0.4"/>
<path d="M754 353H753V354H754V353Z" fill="white" fill-opacity="0.4"/>
</g>
<g clip-path="url(#clip3_1019_3046)">
<path opacity="0.5" d="M404 203.5H403V603.5H404V203.5Z" fill="white" fill-opacity="0.4"/>
<path opacity="0.2" d="M423.55 203H422.55V604H423.55V203Z" fill="white" fill-opacity="0.4"/>
<path opacity="0.2" d="M443.6 203H442.6V604H443.6V203Z" fill="white" fill-opacity="0.4"/>
<path opacity="0.2" d="M463.65 203H462.65V604H463.65V203Z" fill="white" fill-opacity="0.4"/>
<path opacity="0.2" d="M483.7 203H482.7V604H483.7V203Z" fill="white" fill-opacity="0.4"/>
<path opacity="0.5" d="M503.75 203H502.75V604H503.75V203Z" fill="white" fill-opacity="0.4"/>
<path opacity="0.2" d="M523.8 203H522.8V604H523.8V203Z" fill="white" fill-opacity="0.4"/>
<path opacity="0.2" d="M543.85 203H542.85V604H543.85V203Z" fill="white" fill-opacity="0.4"/>
<path opacity="0.2" d="M563.9 203H562.9V604H563.9V203Z" fill="white" fill-opacity="0.4"/>
<path opacity="0.2" d="M583.95 203H582.95V604H583.95V203Z" fill="white" fill-opacity="0.4"/>
<path opacity="0.5" d="M604 203H603V604H604V203Z" fill="white" fill-opacity="0.4"/>
<path opacity="0.2" d="M624.05 203H623.05V604H624.05V203Z" fill="white" fill-opacity="0.4"/>
<path opacity="0.2" d="M644.1 203H643.1V604H644.1V203Z" fill="white" fill-opacity="0.4"/>
<path opacity="0.2" d="M664.15 203H663.15V604H664.15V203Z" fill="white" fill-opacity="0.4"/>
<path opacity="0.2" d="M684.2 203H683.2V604H684.2V203Z" fill="white" fill-opacity="0.4"/>
<path opacity="0.5" d="M704.25 203H703.25V604H704.25V203Z" fill="white" fill-opacity="0.4"/>
<path opacity="0.2" d="M724.3 203H723.3V604H724.3V203Z" fill="white" fill-opacity="0.4"/>
<path opacity="0.2" d="M744.35 203H743.35V604H744.35V203Z" fill="white" fill-opacity="0.4"/>
<path opacity="0.2" d="M764.4 203H763.4V604H764.4V203Z" fill="white" fill-opacity="0.4"/>
<path opacity="0.2" d="M784.45 203H783.45V604H784.45V203Z" fill="white" fill-opacity="0.4"/>
<path opacity="0.5" d="M804 203.5H803V603.5H804V203.5Z" fill="white" fill-opacity="0.4"/>
<path opacity="0.5" d="M803.5 203H403.5V204H803.5V203Z" fill="white" fill-opacity="0.4"/>
<path opacity="0.2" d="M804 222.55H403V223.55H804V222.55Z" fill="white" fill-opacity="0.4"/>
<path opacity="0.2" d="M804 242.6H403V243.6H804V242.6Z" fill="white" fill-opacity="0.4"/>
<path opacity="0.2" d="M804 262.65H403V263.65H804V262.65Z" fill="white" fill-opacity="0.4"/>
<path opacity="0.2" d="M804 282.7H403V283.7H804V282.7Z" fill="white" fill-opacity="0.4"/>
<path opacity="0.5" d="M804 302.75H403V303.75H804V302.75Z" fill="white" fill-opacity="0.4"/>
<path opacity="0.2" d="M804 322.8H403V323.8H804V322.8Z" fill="white" fill-opacity="0.4"/>
<path opacity="0.2" d="M804 342.85H403V343.85H804V342.85Z" fill="white" fill-opacity="0.4"/>
<path opacity="0.2" d="M804 362.9H403V363.9H804V362.9Z" fill="white" fill-opacity="0.4"/>
<path opacity="0.2" d="M804 382.95H403V383.95H804V382.95Z" fill="white" fill-opacity="0.4"/>
<path opacity="0.5" d="M804 403H403V404H804V403Z" fill="white" fill-opacity="0.4"/>
<path opacity="0.2" d="M804 423.05H403V424.05H804V423.05Z" fill="white" fill-opacity="0.4"/>
<path opacity="0.2" d="M804 443.1H403V444.1H804V443.1Z" fill="white" fill-opacity="0.4"/>
<path opacity="0.2" d="M804 463.15H403V464.15H804V463.15Z" fill="white" fill-opacity="0.4"/>
<path opacity="0.2" d="M804 483.2H403V484.2H804V483.2Z" fill="white" fill-opacity="0.4"/>
<path opacity="0.5" d="M804 503.25H403V504.25H804V503.25Z" fill="white" fill-opacity="0.4"/>
<path opacity="0.2" d="M804 523.3H403V524.3H804V523.3Z" fill="white" fill-opacity="0.4"/>
<path opacity="0.2" d="M804 543.35H403V544.35H804V543.35Z" fill="white" fill-opacity="0.4"/>
<path opacity="0.2" d="M804 563.4H403V564.4H804V563.4Z" fill="white" fill-opacity="0.4"/>
<path opacity="0.2" d="M804 583.45H403V584.45H804V583.45Z" fill="white" fill-opacity="0.4"/>
<path opacity="0.5" d="M803.5 603H403.5V604H803.5V603Z" fill="white" fill-opacity="0.4"/>
<path d="M404 200H403V207H404V200Z" fill="white" fill-opacity="0.4"/>
<path d="M407 203H400V204H407V203Z" fill="white" fill-opacity="0.4"/>
<path d="M804 200H803V207H804V200Z" fill="white" fill-opacity="0.4"/>
<path d="M807 203H800V204H807V203Z" fill="white" fill-opacity="0.4"/>
<path d="M404 300H403V307H404V300Z" fill="white" fill-opacity="0.4"/>
<path d="M407 303H400V304H407V303Z" fill="white" fill-opacity="0.4"/>
<path d="M804 300H803V307H804V300Z" fill="white" fill-opacity="0.4"/>
<path d="M807 303H800V304H807V303Z" fill="white" fill-opacity="0.4"/>
<path d="M404 400H403V407H404V400Z" fill="white" fill-opacity="0.4"/>
<path d="M407 403H400V404H407V403Z" fill="white" fill-opacity="0.4"/>
<path d="M804 400H803V407H804V400Z" fill="white" fill-opacity="0.4"/>
<path d="M807 403H800V404H807V403Z" fill="white" fill-opacity="0.4"/>
<path d="M404 500H403V507H404V500Z" fill="white" fill-opacity="0.4"/>
<path d="M407 503H400V504H407V503Z" fill="white" fill-opacity="0.4"/>
<path d="M804 500H803V507H804V500Z" fill="white" fill-opacity="0.4"/>
<path d="M807 503H800V504H807V503Z" fill="white" fill-opacity="0.4"/>
<path d="M404 600H403V607H404V600Z" fill="white" fill-opacity="0.4"/>
<path d="M407 603H400V604H407V603Z" fill="white" fill-opacity="0.4"/>
<path d="M504 200H503V207H504V200Z" fill="white" fill-opacity="0.4"/>
<path d="M507 203H500V204H507V203Z" fill="white" fill-opacity="0.4"/>
<path d="M504 300H503V307H504V300Z" fill="white" fill-opacity="0.4"/>
<path d="M507 303H500V304H507V303Z" fill="white" fill-opacity="0.4"/>
<path d="M504 400H503V407H504V400Z" fill="white" fill-opacity="0.4"/>
<path d="M507 403H500V404H507V403Z" fill="white" fill-opacity="0.4"/>
<path d="M504 500H503V507H504V500Z" fill="white" fill-opacity="0.4"/>
<path d="M507 503H500V504H507V503Z" fill="white" fill-opacity="0.4"/>
<path d="M504 600H503V607H504V600Z" fill="white" fill-opacity="0.4"/>
<path d="M507 603H500V604H507V603Z" fill="white" fill-opacity="0.4"/>
<path d="M604 200H603V207H604V200Z" fill="white" fill-opacity="0.4"/>
<path d="M607 203H600V204H607V203Z" fill="white" fill-opacity="0.4"/>
<path d="M604 300H603V307H604V300Z" fill="white" fill-opacity="0.4"/>
<path d="M607 303H600V304H607V303Z" fill="white" fill-opacity="0.4"/>
<path d="M604 400H603V407H604V400Z" fill="white" fill-opacity="0.4"/>
<path d="M607 403H600V404H607V403Z" fill="white" fill-opacity="0.4"/>
<path d="M604 500H603V507H604V500Z" fill="white" fill-opacity="0.4"/>
<path d="M607 503H600V504H607V503Z" fill="white" fill-opacity="0.4"/>
<path d="M604 600H603V607H604V600Z" fill="white" fill-opacity="0.4"/>
<path d="M607 603H600V604H607V603Z" fill="white" fill-opacity="0.4"/>
<path d="M704 200H703V207H704V200Z" fill="white" fill-opacity="0.4"/>
<path d="M707 203H700V204H707V203Z" fill="white" fill-opacity="0.4"/>
<path d="M704 300H703V307H704V300Z" fill="white" fill-opacity="0.4"/>
<path d="M707 303H700V304H707V303Z" fill="white" fill-opacity="0.4"/>
<path d="M704 400H703V407H704V400Z" fill="white" fill-opacity="0.4"/>
<path d="M707 403H700V404H707V403Z" fill="white" fill-opacity="0.4"/>
<path d="M704 500H703V507H704V500Z" fill="white" fill-opacity="0.4"/>
<path d="M707 503H700V504H707V503Z" fill="white" fill-opacity="0.4"/>
<path d="M704 600H703V607H704V600Z" fill="white" fill-opacity="0.4"/>
<path d="M707 603H700V604H707V603Z" fill="white" fill-opacity="0.4"/>
<path d="M804 600H803V607H804V600Z" fill="white" fill-opacity="0.4"/>
<path d="M807 603H800V604H807V603Z" fill="white" fill-opacity="0.4"/>
<path d="M454 253H453V254H454V253Z" fill="white" fill-opacity="0.4"/>
<path d="M554 253H553V254H554V253Z" fill="white" fill-opacity="0.4"/>
<path d="M654 253H653V254H654V253Z" fill="white" fill-opacity="0.4"/>
<path d="M754 253H753V254H754V253Z" fill="white" fill-opacity="0.4"/>
<path d="M454 353H453V354H454V353Z" fill="white" fill-opacity="0.4"/>
<path d="M554 353H553V354H554V353Z" fill="white" fill-opacity="0.4"/>
<path d="M654 353H653V354H654V353Z" fill="white" fill-opacity="0.4"/>
<path d="M754 353H753V354H754V353Z" fill="white" fill-opacity="0.4"/>
<path d="M454 453H453V454H454V453Z" fill="white" fill-opacity="0.4"/>
<path d="M554 453H553V454H554V453Z" fill="white" fill-opacity="0.4"/>
<path d="M654 453H653V454H654V453Z" fill="white" fill-opacity="0.4"/>
<path d="M754 453H753V454H754V453Z" fill="white" fill-opacity="0.4"/>
<path d="M454 553H453V554H454V553Z" fill="white" fill-opacity="0.4"/>
<path d="M554 553H553V554H554V553Z" fill="white" fill-opacity="0.4"/>
<path d="M654 553H653V554H654V553Z" fill="white" fill-opacity="0.4"/>
<path d="M754 553H753V554H754V553Z" fill="white" fill-opacity="0.4"/>
</g>
<g clip-path="url(#clip4_1019_3046)">
<path opacity="0.5" d="M804 3.5H803V403.5H804V3.5Z" fill="white" fill-opacity="0.4"/>
<path opacity="0.2" d="M823.55 3H822.55V404H823.55V3Z" fill="white" fill-opacity="0.4"/>
<path opacity="0.2" d="M843.6 3H842.6V404H843.6V3Z" fill="white" fill-opacity="0.4"/>
<path opacity="0.2" d="M863.65 3H862.65V404H863.65V3Z" fill="white" fill-opacity="0.4"/>
<path opacity="0.2" d="M883.7 3H882.7V404H883.7V3Z" fill="white" fill-opacity="0.4"/>
<path opacity="0.5" d="M903.75 3H902.75V404H903.75V3Z" fill="white" fill-opacity="0.4"/>
<path opacity="0.2" d="M923.8 3H922.8V404H923.8V3Z" fill="white" fill-opacity="0.4"/>
<path opacity="0.2" d="M943.85 3H942.85V404H943.85V3Z" fill="white" fill-opacity="0.4"/>
<path opacity="0.2" d="M963.9 3H962.9V404H963.9V3Z" fill="white" fill-opacity="0.4"/>
<path opacity="0.5" d="M1203.5 3H803.5V4H1203.5V3Z" fill="white" fill-opacity="0.4"/>
<path d="M804 0H803V7H804V0Z" fill="white" fill-opacity="0.4"/>
<path d="M807 3H800V4H807V3Z" fill="white" fill-opacity="0.4"/>
<path d="M1204 0H1203V7H1204V0Z" fill="white" fill-opacity="0.4"/>
<path d="M1207 3H1200V4H1207V3Z" fill="white" fill-opacity="0.4"/>
<path d="M804 100H803V107H804V100Z" fill="white" fill-opacity="0.4"/>
<path d="M807 103H800V104H807V103Z" fill="white" fill-opacity="0.4"/>
<path d="M804 200H803V207H804V200Z" fill="white" fill-opacity="0.4"/>
<path d="M807 203H800V204H807V203Z" fill="white" fill-opacity="0.4"/>
<path d="M804 300H803V307H804V300Z" fill="white" fill-opacity="0.4"/>
<path d="M807 303H800V304H807V303Z" fill="white" fill-opacity="0.4"/>
<path d="M804 400H803V407H804V400Z" fill="white" fill-opacity="0.4"/>
<path d="M807 403H800V404H807V403Z" fill="white" fill-opacity="0.4"/>
<path d="M904 0H903V7H904V0Z" fill="white" fill-opacity="0.4"/>
<path d="M907 3H900V4H907V3Z" fill="white" fill-opacity="0.4"/>
<path d="M904 100H903V107H904V100Z" fill="white" fill-opacity="0.4"/>
<path d="M907 103H900V104H907V103Z" fill="white" fill-opacity="0.4"/>
<path d="M904 200H903V207H904V200Z" fill="white" fill-opacity="0.4"/>
<path d="M907 203H900V204H907V203Z" fill="white" fill-opacity="0.4"/>
<path d="M904 300H903V307H904V300Z" fill="white" fill-opacity="0.4"/>
<path d="M907 303H900V304H907V303Z" fill="white" fill-opacity="0.4"/>
<path d="M904 400H903V407H904V400Z" fill="white" fill-opacity="0.4"/>
<path d="M907 403H900V404H907V403Z" fill="white" fill-opacity="0.4"/>
<path d="M1004 0H1003V7H1004V0Z" fill="white" fill-opacity="0.4"/>
<path d="M1007 3H1000V4H1007V3Z" fill="white" fill-opacity="0.4"/>
<path d="M1104 0H1103V7H1104V0Z" fill="white" fill-opacity="0.4"/>
<path d="M1107 3H1100V4H1107V3Z" fill="white" fill-opacity="0.4"/>
<path d="M854 53H853V54H854V53Z" fill="white" fill-opacity="0.4"/>
<path d="M954 53H953V54H954V53Z" fill="white" fill-opacity="0.4"/>
<path d="M854 153H853V154H854V153Z" fill="white" fill-opacity="0.4"/>
<path d="M954 153H953V154H954V153Z" fill="white" fill-opacity="0.4"/>
<path d="M854 253H853V254H854V253Z" fill="white" fill-opacity="0.4"/>
<path d="M954 253H953V254H954V253Z" fill="white" fill-opacity="0.4"/>
<path d="M854 353H853V354H854V353Z" fill="white" fill-opacity="0.4"/>
<path d="M954 353H953V354H954V353Z" fill="white" fill-opacity="0.4"/>
</g>
<path opacity="0.5" d="M804 203.5H803V603.5H804V203.5Z" fill="white" fill-opacity="0.4"/>
<path opacity="0.2" d="M823.55 203H822.55V604H823.55V203Z" fill="white" fill-opacity="0.4"/>
<path opacity="0.2" d="M843.6 203H842.6V604H843.6V203Z" fill="white" fill-opacity="0.4"/>
<path opacity="0.2" d="M863.65 203H862.65V604H863.65V203Z" fill="white" fill-opacity="0.4"/>
<path opacity="0.2" d="M883.7 203H882.7V604H883.7V203Z" fill="white" fill-opacity="0.4"/>
<path opacity="0.5" d="M903.75 203H902.75V604H903.75V203Z" fill="white" fill-opacity="0.4"/>
<path opacity="0.2" d="M923.8 203H922.8V604H923.8V203Z" fill="white" fill-opacity="0.4"/>
<path opacity="0.2" d="M943.85 203H942.85V604H943.85V203Z" fill="white" fill-opacity="0.4"/>
<path opacity="0.2" d="M963.9 203H962.9V604H963.9V203Z" fill="white" fill-opacity="0.4"/>
<path d="M804 200H803V207H804V200Z" fill="white" fill-opacity="0.4"/>
<path d="M807 203H800V204H807V203Z" fill="white" fill-opacity="0.4"/>
<path d="M804 300H803V307H804V300Z" fill="white" fill-opacity="0.4"/>
<path d="M807 303H800V304H807V303Z" fill="white" fill-opacity="0.4"/>
<path d="M804 400H803V407H804V400Z" fill="white" fill-opacity="0.4"/>
<path d="M807 403H800V404H807V403Z" fill="white" fill-opacity="0.4"/>
<path d="M804 500H803V507H804V500Z" fill="white" fill-opacity="0.4"/>
<path d="M807 503H800V504H807V503Z" fill="white" fill-opacity="0.4"/>
<path d="M804 600H803V607H804V600Z" fill="white" fill-opacity="0.4"/>
<path d="M807 603H800V604H807V603Z" fill="white" fill-opacity="0.4"/>
<path d="M904 200H903V207H904V200Z" fill="white" fill-opacity="0.4"/>
<path d="M907 203H900V204H907V203Z" fill="white" fill-opacity="0.4"/>
<path d="M904 300H903V307H904V300Z" fill="white" fill-opacity="0.4"/>
<path d="M907 303H900V304H907V303Z" fill="white" fill-opacity="0.4"/>
<path d="M904 400H903V407H904V400Z" fill="white" fill-opacity="0.4"/>
<path d="M907 403H900V404H907V403Z" fill="white" fill-opacity="0.4"/>
<path d="M904 500H903V507H904V500Z" fill="white" fill-opacity="0.4"/>
<path d="M907 503H900V504H907V503Z" fill="white" fill-opacity="0.4"/>
<path d="M904 600H903V607H904V600Z" fill="white" fill-opacity="0.4"/>
<path d="M907 603H900V604H907V603Z" fill="white" fill-opacity="0.4"/>
<path d="M854 253H853V254H854V253Z" fill="white" fill-opacity="0.4"/>
<path d="M954 253H953V254H954V253Z" fill="white" fill-opacity="0.4"/>
<path d="M854 353H853V354H854V353Z" fill="white" fill-opacity="0.4"/>
<path d="M954 353H953V354H954V353Z" fill="white" fill-opacity="0.4"/>
<path d="M854 453H853V454H854V453Z" fill="white" fill-opacity="0.4"/>
<path d="M954 453H953V454H954V453Z" fill="white" fill-opacity="0.4"/>
<path d="M854 553H853V554H854V553Z" fill="white" fill-opacity="0.4"/>
<path d="M954 553H953V554H954V553Z" fill="white" fill-opacity="0.4"/>
<path opacity="0.5" d="M1603.5 3H1203.5V4H1603.5V3Z" fill="white" fill-opacity="0.4"/>
<path d="M1204 0H1203V7H1204V0Z" fill="white" fill-opacity="0.4"/>
<path d="M1207 3H1200V4H1207V3Z" fill="white" fill-opacity="0.4"/>
<path d="M1604 0H1603V7H1604V0Z" fill="white" fill-opacity="0.4"/>
<path d="M1607 3H1600V4H1607V3Z" fill="white" fill-opacity="0.4"/>
<path d="M1304 0H1303V7H1304V0Z" fill="white" fill-opacity="0.4"/>
<path d="M1307 3H1300V4H1307V3Z" fill="white" fill-opacity="0.4"/>
<path d="M1404 0H1403V7H1404V0Z" fill="white" fill-opacity="0.4"/>
<path d="M1407 3H1400V4H1407V3Z" fill="white" fill-opacity="0.4"/>
<path d="M1504 0H1503V7H1504V0Z" fill="white" fill-opacity="0.4"/>
<path d="M1507 3H1500V4H1507V3Z" fill="white" fill-opacity="0.4"/>
<path opacity="0.5" d="M2003.5 3H1603.5V4H2003.5V3Z" fill="white" fill-opacity="0.4"/>
<path d="M1604 0H1603V7H1604V0Z" fill="white" fill-opacity="0.4"/>
<path d="M1607 3H1600V4H1607V3Z" fill="white" fill-opacity="0.4"/>
<path d="M1704 0H1703V7H1704V0Z" fill="white" fill-opacity="0.4"/>
<path d="M1707 3H1700V4H1707V3Z" fill="white" fill-opacity="0.4"/>
<path d="M1804 0H1803V7H1804V0Z" fill="white" fill-opacity="0.4"/>
<path d="M1807 3H1800V4H1807V3Z" fill="white" fill-opacity="0.4"/>
<path d="M1904 0H1903V7H1904V0Z" fill="white" fill-opacity="0.4"/>
<path d="M1907 3H1900V4H1907V3Z" fill="white" fill-opacity="0.4"/>
</g>
<defs>
<clipPath id="clip0_1019_3046">
<rect width="407" height="407" fill="white"/>
</clipPath>
<clipPath id="clip1_1019_3046">
<rect width="407" height="407" fill="white" transform="translate(0 200)"/>
</clipPath>
<clipPath id="clip2_1019_3046">
<rect width="407" height="407" fill="white" transform="translate(400)"/>
</clipPath>
<clipPath id="clip3_1019_3046">
<rect width="407" height="407" fill="white" transform="translate(400 200)"/>
</clipPath>
<clipPath id="clip4_1019_3046">
<rect width="407" height="407" fill="white" transform="translate(800)"/>
</clipPath>
</defs>
</svg>
